<svg width="1001" height="227" viewBox="0 0 1001 227" fill="none" xmlns="http://www.w3.org/2000/svg">
<path fill-rule="evenodd" clip-rule="evenodd" d="M64 27H199V162H190.196V94.5C190.196 62.0833 163.917 35.8043 131.5 35.8043C99.0833 35.8043 72.8044 62.0832 72.8044 94.5V162H64V27ZM136 92V227H1L1.00001 92H9.80436V159.5C9.80435 191.917 36.0833 218.196 68.5 218.196C100.917 218.196 127.196 191.917 127.196 159.5V92H136Z" fill="white"/>
<path d="M319.703 99.0156C319.078 92.7135 316.396 87.8177 311.656 84.3281C306.917 80.8385 300.484 79.0937 292.359 79.0937C286.839 79.0937 282.177 79.875 278.375 81.4375C274.573 82.9479 271.656 85.0573 269.625 87.7656C267.646 90.474 266.656 93.5469 266.656 96.9844C266.552 99.849 267.151 102.349 268.453 104.484C269.807 106.62 271.656 108.469 274 110.031C276.344 111.542 279.052 112.87 282.125 114.016C285.198 115.109 288.479 116.047 291.969 116.828L306.344 120.266C313.323 121.828 319.729 123.911 325.562 126.516C331.396 129.12 336.448 132.323 340.719 136.125C344.99 139.927 348.297 144.406 350.641 149.562C353.036 154.719 354.26 160.63 354.312 167.297C354.26 177.089 351.76 185.578 346.813 192.766C341.917 199.901 334.833 205.448 325.562 209.406C316.344 213.312 305.224 215.266 292.203 215.266C279.286 215.266 268.036 213.286 258.453 209.328C248.922 205.37 241.474 199.51 236.109 191.75C230.797 183.937 228.01 174.276 227.75 162.766H260.484C260.849 168.13 262.385 172.609 265.094 176.203C267.854 179.745 271.526 182.427 276.109 184.25C280.745 186.021 285.979 186.906 291.812 186.906C297.542 186.906 302.516 186.073 306.734 184.406C311.005 182.74 314.313 180.422 316.656 177.453C319 174.484 320.172 171.073 320.172 167.219C320.172 163.625 319.104 160.604 316.969 158.156C314.885 155.708 311.813 153.625 307.75 151.906C303.74 150.187 298.818 148.625 292.984 147.219L275.563 142.844C262.073 139.562 251.422 134.432 243.609 127.453C235.797 120.474 231.917 111.073 231.969 99.25C231.917 89.5625 234.495 81.099 239.703 73.8594C244.964 66.6198 252.177 60.9687 261.344 56.9062C270.51 52.8437 280.927 50.8125 292.594 50.8125C304.469 50.8125 314.833 52.8437 323.688 56.9062C332.594 60.9687 339.521 66.6198 344.469 73.8594C349.417 81.099 351.969 89.4844 352.125 99.0156H319.703ZM440.27 93V118H368.004V93H440.27ZM384.41 64.25H417.691V176.125C417.691 179.198 418.16 181.594 419.098 183.312C420.035 184.979 421.337 186.151 423.004 186.828C424.723 187.505 426.702 187.844 428.941 187.844C430.504 187.844 432.066 187.714 433.629 187.453C435.191 187.141 436.389 186.906 437.223 186.75L442.457 211.516C440.79 212.036 438.447 212.635 435.426 213.313C432.405 214.042 428.733 214.484 424.41 214.641C416.389 214.953 409.358 213.885 403.316 211.437C397.327 208.99 392.665 205.187 389.332 200.031C385.999 194.875 384.358 188.365 384.41 180.5V64.25ZM514.879 215.344C502.743 215.344 492.249 212.766 483.395 207.609C474.592 202.401 467.796 195.161 463.004 185.891C458.212 176.568 455.816 165.76 455.816 153.469C455.816 141.073 458.212 130.24 463.004 120.969C467.796 111.646 474.592 104.406 483.395 99.25C492.249 94.0417 502.743 91.4375 514.879 91.4375C527.014 91.4375 537.483 94.0417 546.285 99.25C555.139 104.406 561.962 111.646 566.754 120.969C571.546 130.24 573.941 141.073 573.941 153.469C573.941 165.76 571.546 176.568 566.754 185.891C561.962 195.161 555.139 202.401 546.285 207.609C537.483 212.766 527.014 215.344 514.879 215.344ZM515.035 189.562C520.556 189.562 525.165 188 528.863 184.875C532.561 181.698 535.348 177.375 537.223 171.906C539.15 166.437 540.113 160.214 540.113 153.234C540.113 146.255 539.15 140.031 537.223 134.562C535.348 129.094 532.561 124.771 528.863 121.594C525.165 118.417 520.556 116.828 515.035 116.828C509.462 116.828 504.775 118.417 500.973 121.594C497.223 124.771 494.384 129.094 492.457 134.562C490.582 140.031 489.645 146.255 489.645 153.234C489.645 160.214 490.582 166.437 492.457 171.906C494.384 177.375 497.223 181.698 500.973 184.875C504.775 188 509.462 189.562 515.035 189.562ZM595.582 213V93H627.848V113.937H629.098C631.285 106.49 634.957 100.865 640.113 97.0625C645.27 93.2083 651.207 91.2812 657.926 91.2812C659.592 91.2812 661.389 91.3854 663.316 91.5937C665.243 91.8021 666.936 92.0885 668.395 92.4531V121.984C666.832 121.516 664.671 121.099 661.91 120.734C659.15 120.37 656.624 120.188 654.332 120.188C649.436 120.188 645.061 121.255 641.207 123.391C637.405 125.474 634.384 128.391 632.145 132.141C629.957 135.891 628.863 140.214 628.863 145.109V213H595.582ZM685.602 213V93H718.883V213H685.602ZM702.32 77.5312C697.372 77.5312 693.128 75.8906 689.586 72.6094C686.096 69.276 684.352 65.2917 684.352 60.6562C684.352 56.0729 686.096 52.1406 689.586 48.8594C693.128 45.526 697.372 43.8594 702.32 43.8594C707.268 43.8594 711.487 45.526 714.977 48.8594C718.518 52.1406 720.289 56.0729 720.289 60.6562C720.289 65.2917 718.518 69.276 714.977 72.6094C711.487 75.8906 707.268 77.5312 702.32 77.5312Z" fill="white"/>
<path d="M810.074 93V118H736.012V93H810.074ZM752.965 213V84.3281C752.965 75.6302 754.658 68.4167 758.043 62.6875C761.48 56.9583 766.168 52.6614 772.105 49.7969C778.043 46.9323 784.788 45.5 792.34 45.5C797.444 45.5 802.105 45.8906 806.324 46.6719C810.595 47.4531 813.772 48.1562 815.855 48.7812L809.918 73.7812C808.616 73.3646 807.001 72.974 805.074 72.6094C803.199 72.2448 801.272 72.0625 799.293 72.0625C794.397 72.0625 790.986 73.2083 789.059 75.5C787.132 77.7396 786.168 80.8906 786.168 84.9531V213H752.965ZM860.328 215.266C852.672 215.266 845.849 213.938 839.859 211.281C833.87 208.573 829.13 204.589 825.641 199.328C822.203 194.016 820.484 187.401 820.484 179.484C820.484 172.818 821.708 167.219 824.156 162.687C826.604 158.156 829.938 154.51 834.156 151.75C838.375 148.99 843.167 146.906 848.531 145.5C853.948 144.094 859.625 143.104 865.563 142.531C872.542 141.802 878.167 141.125 882.438 140.5C886.708 139.823 889.807 138.833 891.734 137.531C893.661 136.229 894.625 134.302 894.625 131.75V131.281C894.625 126.333 893.063 122.505 889.937 119.797C886.865 117.089 882.49 115.734 876.812 115.734C870.823 115.734 866.057 117.062 862.516 119.719C858.974 122.323 856.63 125.604 855.484 129.562L824.703 127.062C826.266 119.771 829.339 113.469 833.922 108.156C838.505 102.792 844.417 98.6771 851.656 95.8125C858.948 92.8958 867.385 91.4375 876.969 91.4375C883.635 91.4375 890.016 92.2187 896.109 93.7812C902.255 95.3437 907.698 97.7656 912.438 101.047C917.229 104.328 921.005 108.547 923.766 113.703C926.526 118.807 927.906 124.927 927.906 132.062V213H896.344V196.359H895.406C893.479 200.109 890.901 203.417 887.672 206.281C884.443 209.094 880.562 211.307 876.031 212.922C871.5 214.484 866.266 215.266 860.328 215.266ZM869.859 192.297C874.755 192.297 879.078 191.333 882.828 189.406C886.578 187.427 889.521 184.771 891.656 181.438C893.792 178.104 894.859 174.328 894.859 170.109V157.375C893.818 158.052 892.385 158.677 890.563 159.25C888.792 159.771 886.786 160.266 884.547 160.734C882.307 161.151 880.068 161.542 877.828 161.906C875.589 162.219 873.557 162.505 871.734 162.766C867.828 163.339 864.417 164.25 861.5 165.5C858.583 166.75 856.318 168.443 854.703 170.578C853.089 172.661 852.281 175.266 852.281 178.391C852.281 182.922 853.922 186.385 857.203 188.781C860.536 191.125 864.755 192.297 869.859 192.297ZM987.008 53V213H953.727V53H987.008Z" fill="#BBACFF"/>
</svg>
